<?xml version="1.0" standalone="no"?>
<!DOCTYPE svg PUBLIC "-//W3C//DTD SVG 20010904//EN"
 "http://www.w3.org/TR/2001/REC-SVG-20010904/DTD/svg10.dtd">
<svg version="1.0" xmlns="http://www.w3.org/2000/svg"
 width="180.000000pt" height="180.000000pt" viewBox="0 0 180.000000 180.000000"
 preserveAspectRatio="xMidYMid meet">
<metadata>
Created by potrace 1.14, written by Peter Selinger 2001-2017
</metadata>
<g transform="translate(0.000000,180.000000) scale(0.100000,-0.100000)"
fill="#000000" stroke="none">
<path d="M660 1683 c-64 -22 -117 -67 -153 -131 l-31 -55 -16 48 c-9 27 -21
50 -27 52 -6 2 -23 -21 -38 -52 -21 -42 -28 -70 -27 -115 0 -32 3 -64 7 -69
10 -16 5 -15 -162 44 -86 31 -160 54 -165 53 -9 -3 163 -135 310 -237 59 -42
62 -46 59 -80 -2 -19 3 -56 13 -82 14 -42 15 -58 4 -131 -6 -46 -15 -105 -18
-132 -4 -28 -22 -81 -41 -118 l-34 -69 20 -56 c28 -82 42 -98 94 -113 67 -19
96 -19 125 -1 13 9 36 17 50 17 14 1 35 2 47 3 24 1 140 97 160 133 7 13 12
44 13 69 0 36 8 58 33 95 52 78 71 103 80 104 10 0 58 -48 89 -90 73 -99 86
-258 30 -373 -40 -81 -107 -148 -185 -187 -78 -38 -103 -44 -199 -44 -42 -1
-74 -4 -72 -7 8 -14 157 -34 244 -33 92 0 182 20 220 48 16 11 -25 -40 -50
-63 -15 -14 -8 -13 72 4 53 11 169 86 231 147 37 38 69 68 71 68 2 0 0 -19 -5
-41 -6 -23 -7 -44 -4 -47 10 -10 159 152 193 210 61 103 90 207 91 327 l1 55
24 -32 c20 -28 24 -30 28 -14 7 24 2 155 -7 207 -35 208 -159 392 -336 498
l-64 39 63 -4 c34 -2 62 -3 62 -1 0 8 -140 92 -185 110 -157 66 -331 68 -492
5 -58 -22 -62 -20 -33 18 11 14 20 28 20 33 0 12 -62 7 -110 -10z"/>
</g>
</svg>
