<?xml version="1.0" encoding="utf-8"?>
<!-- Generator: Adobe Illustrator 26.1.0, SVG Export Plug-In . SVG Version: 6.00 Build 0)  -->
<svg version="1.1" id="Layer_1" xmlns="http://www.w3.org/2000/svg" xmlns:xlink="http://www.w3.org/1999/xlink" x="0px" y="0px"
	 viewBox="0 0 96.8 96.8" style="enable-background:new 0 0 96.8 96.8;" xml:space="preserve">
<style type="text/css">
	.st0{fill:#0097DF;}
	.st1{fill-rule:evenodd;clip-rule:evenodd;fill:#0097DF;}
</style>
<g>
	<path class="st0" d="M22.6,62.3c4.6,0,8.3-3.7,8.3-8.3c0-4.6-3.7-8.3-8.3-8.3c-4.6,0-8.3,3.7-8.3,8.3C14.3,58.6,18,62.3,22.6,62.3z
		 M22.6,48.2c3.2,0,5.8,2.6,5.8,5.8c0,3.2-2.6,5.8-5.8,5.8s-5.8-2.6-5.8-5.8C16.8,50.8,19.4,48.2,22.6,48.2z"/>
	<path class="st0" d="M22.6,64.5c-7.3,0-13.2,5.9-13.2,13.2c0,2.2,1.8,4.1,4.1,4.1h18.3c2.2,0,4.1-1.8,4.1-4.1
		C35.8,70.5,29.9,64.5,22.6,64.5z M31.7,79.3L31.7,79.3H13.4c-0.9,0-1.6-0.7-1.6-1.6c0-5.9,4.8-10.7,10.7-10.7
		c5.9,0,10.7,4.8,10.7,10.7C33.3,78.6,32.6,79.3,31.7,79.3z"/>
	<path class="st0" d="M46.9,46.8c4.6,0,8.3-3.7,8.3-8.3c0-4.6-3.7-8.3-8.3-8.3c-4.6,0-8.3,3.7-8.3,8.3
		C38.6,43.1,42.3,46.8,46.9,46.8z M46.9,32.7c3.2,0,5.8,2.6,5.8,5.8c0,3.2-2.6,5.8-5.8,5.8c-3.2,0-5.8-2.6-5.8-5.8
		C41.1,35.3,43.7,32.7,46.9,32.7z"/>
	<path class="st0" d="M60.1,62.3L60.1,62.3c0-7.3-5.9-13.2-13.2-13.2c-7.3,0-13.2,5.9-13.2,13.2c0,2.2,1.8,4.1,4.1,4.1H56
		C58.3,66.4,60.1,64.5,60.1,62.3z M56,63.9L56,63.9H37.7c-0.9,0-1.6-0.7-1.6-1.6c0-5.9,4.8-10.7,10.7-10.7s10.7,4.8,10.7,10.7
		C57.6,63.2,56.9,63.9,56,63.9z"/>
	<path class="st0" d="M71.2,62.3c4.6,0,8.3-3.7,8.3-8.3c0-4.6-3.7-8.3-8.3-8.3c-4.6,0-8.3,3.7-8.3,8.3
		C62.9,58.6,66.6,62.3,71.2,62.3z M71.2,48.2c3.2,0,5.8,2.6,5.8,5.8c0,3.2-2.6,5.8-5.8,5.8c-3.2,0-5.8-2.6-5.8-5.8
		C65.4,50.8,68,48.2,71.2,48.2z"/>
	<path class="st0" d="M71.2,64.5c-7.3,0-13.2,5.9-13.2,13.2c0,2.2,1.8,4.1,4.1,4.1h18.3c2.2,0,4.1-1.8,4.1-4.1
		C84.4,70.5,78.5,64.5,71.2,64.5z M80.3,79.3L80.3,79.3H62c-0.9,0-1.6-0.7-1.6-1.6c0-5.9,4.8-10.7,10.7-10.7
		c5.9,0,10.7,4.8,10.7,10.7C81.9,78.6,81.2,79.3,80.3,79.3z"/>
	<path class="st0" d="M46.9,25.6c0.7,0,1.3-0.6,1.3-1.3v-6.5c0-0.7-0.6-1.3-1.3-1.3c-0.7,0-1.3,0.6-1.3,1.3v6.5
		C45.6,25.1,46.2,25.6,46.9,25.6z"/>
	<path class="st0" d="M66.2,33.6c0.3,0,0.6-0.1,0.9-0.4l4.6-4.6c0.5-0.5,0.5-1.3,0-1.8c-0.5-0.5-1.3-0.5-1.8,0l-4.6,4.6
		c-0.5,0.5-0.5,1.3,0,1.8C65.5,33.5,65.9,33.6,66.2,33.6z"/>
	<path class="st0" d="M26.7,33.2c0.2,0.2,0.6,0.4,0.9,0.4c0.3,0,0.6-0.1,0.9-0.4c0.5-0.5,0.5-1.3,0-1.8l-4.6-4.6
		c-0.5-0.5-1.3-0.5-1.8,0c-0.5,0.5-0.5,1.3,0,1.8L26.7,33.2z"/>
	<path class="st0" d="M35.3,26.9c0.2,0.5,0.7,0.8,1.2,0.8c0.2,0,0.3,0,0.5-0.1c0.6-0.3,0.9-1,0.7-1.6l-2.5-6c-0.3-0.6-1-0.9-1.6-0.7
		c-0.6,0.3-0.9,1-0.7,1.6L35.3,26.9z"/>
	<path class="st0" d="M56.8,27.6L56.8,27.6c0.2,0.1,0.3,0.1,0.5,0.1c0.5,0,1-0.3,1.2-0.8l2.5-6c0.3-0.6,0-1.4-0.7-1.6
		c-0.6-0.3-1.4,0-1.6,0.7l-2.5,6C55.9,26.6,56.2,27.3,56.8,27.6z"/>
</g>
</svg>
