<svg xmlns="http://www.w3.org/2000/svg" xmlns:xlink="http://www.w3.org/1999/xlink" width="129.824" height="179.899" viewBox="0 0 129.824 179.899"><defs><clipPath id="a"><rect width="129.824" height="179.899" fill="none"/></clipPath></defs><g clip-path="url(#a)"><path d="M97.949,33.211c-23.364-13.582-58.5-17.106-74.88,3.67S5.081,88.561,6.785,116.252s-9.094,51.435,31.4,57.265,50.982-11.022,62.946-38.7,24.858-48.3,17.752-67.865" fill="#fff"/><path d="M40.834,85.714c3.055.732,5.163-1.426,4.923-4.3a16.722,16.722,0,0,0-4.58-9.221c-2.246-2.04-9.729-5.583-7.093-2.937s4.506,4.557,2.715,6.127-4.723,4.562-1.477,7.37" fill="#3caeee"/><path d="M90.967,35.915c8.59,11.054,5.72,22.862.812,29.554s-.412,15.77-.412,15.77-9.927-10.5-14.974-8.19S58.694,94.141,62.2,99.666s10.143-3.824,15.409.363-4.031,15.7-2.841,18.541-14.36-2.271-15.866.679-11.883-5.4-11.883-5.4,4.3,5.476,5.26,10.023,7.09,9.325,7.09,9.325,2.521,3.5-.2,3.759-5.44,6.357-8.657,7.97S58.684,156.76,56.27,162.9s-17.687,9.422-6.438,12.531,31.689-1.047,40.281-18.963,25.283-47.821,24.5-68.748,3.979-26.9-3.5-38.017" fill="#85d0f1"/><path d="M68.34,88.751s-.6,5.6,6.653,6.742,8.75-.543,8.75-.543-3.058,3.921-10.119,2.486a19.259,19.259,0,0,1-10.693-6.03l.932-2.791" fill="#3caeee"/><path d="M39.733,86.274s-.759,5.575-10.294,4.355-8.532-6.84-8.532-6.84,5-4.288,10.5-2.986,7.332,4.074,7.332,4.074" fill="#6cbfee"/><path d="M13.607,121.756s-4.445,19.9-.4,29.6c0,0-5.062-6.841-5.725-13.556,0,0-.018,17.506,9.056,22.685s19.7,1.264,28.122,4.3,16.134,6.614,22.758,5.466,12.317-5.894,17.3-14.68,6.43-24.046,11.764-29.629,10.585-14.017,11.034-23.1,1.928-16.771,6.424-11.271c6.625,8.106,1.3,13.268,1.531,17.717s4.458,1.238,5.965,4.072,1.5,5.988.823,10.944a32.054,32.054,0,0,1-6.576,15.088c-3.538,4.355-4.466,8.856-10.365,10.471s-7.945-.346-7.945-.346-3.878,13.037-9.321,16.712-21.261,11.722-43.387,8.183-29.476-2.858-35.634-9.375S.476,157.561.16,147.528s-.219-20.009.812-26.809,2.2-21.573,2.356-22.709,1.471-16.2,2.38-21.338,3.56-9.925,3.312-7.33-.494,19.071-.01,25.551-4.179,12.155,1.66,17.157" fill="#3caeee"/><path d="M48.342,106.454a13.423,13.423,0,0,0,4.578-9.682c.089-4.51,2.307-14.618,5.967-13.7s2.7,11.093,6.929,16.3,10.9,20.308,10.268,24.217-10.119-3.692-13.31-7.281" fill="#3caeee"/><path d="M100.605,139.65s-3.661,19.16-7.254,25.467-20.43,15.663-39.86,14.715-38.4-8.384-44.093-11.344S1.49,155.519,1.49,155.519s5.993,10.039,13.524,10.336,20.548-1.085,30.058,1.667,16.262,8.767,26.191,3.809,15.841-5.124,19.044-8.571,9.855-18.316,10.3-23.11" fill="#008eee"/><path d="M36.433,112.824c-1.244-1.636,1.219-7.4,3.542-8.246s4.242,2.05,8.038,1.2,2.4-2.2,7.194.454,8.275,7.962,10.552,13.635.494,10.268-5.545,8.289S52.542,117.822,48.921,116.1c-4.346-2.064-9.9.124-12.488-3.278" fill="#3caeee"/><path d="M54.995,113.2c2.006-.831.724-4.16-2.134-5.18s-4.413,1.134-3.075,2.893,5.209,2.287,5.209,2.287" fill="#008eee"/><path d="M38.636,112.861c2.958-1.268,5.265-2.753,4.1-4.646a2.617,2.617,0,0,0-4.6.162c-1.027,1.753-.344,4.843.494,4.484" fill="#008eee"/><path d="M106.128,121.106s4.446-16.43,3.057-25.925a86.827,86.827,0,0,0-5.2-18.533,10.791,10.791,0,0,1,2.1-2.711c1.252-1.091-2.12-6.44.35-7.208s1.724-6.863,2.033-6.821S102.243,44.233,88,36.458,57.134,28,47.379,33.607c0,0,8.579-6.245,16.181-6.472,0,0-23.249.462-34.383,11.564S13.019,58.9,11.225,65.12,8.3,70.4,7.334,75.158s-1.49,12.1-2.517,17.324a115.5,115.5,0,0,0-1.441,12.9s-2.69-5.73-1.635-10a76.39,76.39,0,0,0,2.1-20.061C3.714,65.832,5.718,51.12,10.82,43.771a36.834,36.834,0,0,0,5.91-15.6s2.6,1.773,2.8,2.59c0,0-1.522-9.671,3.369-15.472,0,0-.724,4.16.8,6.891,0,0,3.672-13.065,19.4-17.39,0,0-2.956,4.329-1.92,7.152,0,0,7.663-11.1,21.185-11.942,0,0,11.285,5.165,15.122,10.577,0,0-2.782-6.215-4.76-7.9,0,0,16.711,3.538,23.006,12.912,0,0-.226-4.131-1.078-5.982,0,0,14.784,13.054,17.637,23.38s5.577,14.64,11.5,24.438,7.345,21.348,4.876,29.056-7.579,13.953-8.19,18.444-1.379,5.49-1.379,5.49a27.3,27.3,0,0,0-12.971,10.695" fill="#008eee"/><path d="M66.78,138.619s-6.083-6.3-10.33-9.083-8.509-3.157-11.489-3.668-8.184-.9-11.107.485-7.414,4.249-8.526,5.464a7.975,7.975,0,0,1-2.125,1.709,16.254,16.254,0,0,0,7.254-1.536,17.042,17.042,0,0,1,11.2-1.945c4.75.647,10.076,1.688,13.652,3.226s5.407,4.312,7.181,5.185a7.06,7.06,0,0,0,4.289.163" fill="#008eee"/><path d="M64.776,138.661c-3.178.75-13.9-1.025-13.9-1.025A23.432,23.432,0,0,0,44.2,135.7c-3.871-.527-9.787.639-9.787.639s-.842-.193-4.713-.721a18.786,18.786,0,0,1-6.5-2.094s6.37-2.182,6.856-2.274a25.268,25.268,0,0,1,3.752.827,37.993,37.993,0,0,0,7.1,1.755c3.716.506,9.26,1.5,11.78,1.525a31.871,31.871,0,0,0,5.853-.7" fill="#008eee"/><path d="M72.313,85.637c2.088-.662,3.378-3.957,1.51-5.683S83,74.368,78.806,73.482s-13.15-.739-17.851,3.668-2.9,7.807-1.321,9.705,1.672,2.354,3.607,1.291,4.61,2.457,8.707,2.489" fill="#3caeee"/><path d="M61.31,137.48a130.837,130.837,0,0,0-14.435.006,54.477,54.477,0,0,1-11.219-.424,44.678,44.678,0,0,0,11.087,1.983c5.195.077,13.519.343,15.64.4s4.353-1.852-1.073-1.96" fill="#008eee"/><path d="M52.576,143.309a70.886,70.886,0,0,1-13-1.035c-6.565-1.209-7.822.3-3.828,2.633s-1.112,3.53-1.112,3.53,8.47-.424,14.768,2.747,3.176-7.875,3.176-7.875" fill="#008eee"/><path d="M44.39,76.787s-1.221-6.476-9.406-9.693-12.407-.008-12.407-.008l2.407.854s-5.4,1.052-7.662,4.53c0,0,2.609-2.169,7.184-1.02s6.551-1,10.423.684,9.461,4.653,9.461,4.653" fill="#008eee"/><path d="M63.194,76.929S66.1,71.016,74.849,70.1s11.958,3.311,11.958,3.311l-2.548.178s4.923,2.459,6.172,6.414c0,0-1.934-2.787-6.65-2.9s-6.045-2.716-10.226-2.129-10.361,1.954-10.361,1.954" fill="#008eee"/><path d="M39.309,86.295c1.514-.649-1.594-6.053-7.391-6.922s-9.907,4.409-9.907,4.409,3.157-2.331,5.124-2.3c0,0-.2,2.654,1.328,3.573l6.149.6,1.069-2.062s2.092,3.36,3.628,2.7" fill="#008eee"/><path d="M38.568,85.563s-10.157-.12-13.712-1.235c0,0,8.539,2.74,13.712,1.235" fill="#008eee"/><path d="M38.923,84.113s2.316-.789.38-2.788-6.547-4.046-11.2-3.5-7.668,5.344-7.668,5.344,2.656-6.184,9.576-6.031,9.32,3.951,11.2,5.232.214,5-1.9,3.921" fill="#008eee"/><path d="M83.146,93.386c1.56-.529-1.118-6.159-6.829-7.476S66.1,89.533,66.1,89.533s3.328-2.078,5.287-1.893c0,0-.41,2.63,1.045,3.664l6.084,1.078,1.227-1.973s1.824,3.514,3.406,2.977" fill="#008eee"/><path d="M82.464,92.6s-10.117-.912-13.574-2.3c0,0,8.3,3.4,13.574,2.3" fill="#008eee"/><path d="M82.931,91.18s2.37-.606.6-2.749-6.212-4.545-10.89-4.359S64.576,88.8,64.576,88.8s3.13-5.959,10.016-5.266,8.984,4.664,10.755,6.087-.177,5-2.2,3.761" fill="#008eee"/><path d="M66.281,88.234c.967-.92-.179-1.391,1.023-2.49A10.357,10.357,0,0,1,70.748,84a40.247,40.247,0,0,0-4.677.362c-1.14.266,5.094-4.2,3.55-4.827a9,9,0,0,0-8.839,2.74c-2.587,3.17,1.829,3.561,1.128,6.778a2.785,2.785,0,0,0,2.183,3.663s-.449-3.269,2.6-3.274Z" fill="#008eee"/><path d="M113.756,111.419c4.716-2.2,7.7-2.106,9.672,1.948s-3.305,18.478-3.305,18.478,3.63-12.755,1.658-16.809-9.411.769-11.909,4.056-5.785,7.73-5.785,7.73,1.54-11.305,5.706-16.416" fill="#008eee"/><path d="M120.713,124.039c.788-4.625,1.329-9.756-3.746-8.4s-10.768,9.575-12.513,13.123,2.147,3.92,4.646.633,1.624-8.454,5.418-6.2,6.195.844,6.195.844" fill="#008eee"/><path d="M116.741,126.179c-3.189.074-.009,3.154-2.115,7.809a19.111,19.111,0,0,1-6.259,7.35,26.94,26.94,0,0,0,8.019-6.374c3.054-3.9,2.992-8.846.355-8.785" fill="#008eee"/><path d="M31.737,109.082s-5.207,11.594-10.8,15.565-12.46-2.328-14.157-8.4.364-8.468,6.707-5.238,18.245-1.932,18.245-1.932" fill="#3caeee"/><path d="M37.2,89.426s-7.177,4.438-12.435,1.356-3.7-5.236-3.7-5.236S26.4,91.11,37.2,89.426" fill="#3caeee"/><path d="M89.225,118.368c-2.982,3.377-14.664,5.821-18.143,3.582s3.761,7.574,2.805,12.74,4.03,5.593,9.838,1.844,5.5-18.166,5.5-18.166" fill="#3caeee"/></g></svg>