<?xml version="1.0" encoding="utf-8"?>
<!-- Generator: Adobe Illustrator 26.1.0, SVG Export Plug-In . SVG Version: 6.00 Build 0)  -->
<svg version="1.1" id="Layer_1" xmlns="http://www.w3.org/2000/svg" xmlns:xlink="http://www.w3.org/1999/xlink" x="0px" y="0px"
	 viewBox="0 0 96.8 96.8" style="enable-background:new 0 0 96.8 96.8;" xml:space="preserve">
<style type="text/css">
	.st0{fill:#0097DF;}
	.st1{fill-rule:evenodd;clip-rule:evenodd;fill:#0097DF;}
</style>
<g>
	<path class="st0" d="M82.1,15.9c-0.2-0.2-0.5-0.4-0.8-0.4l0,0h-7.2c-0.7,0-1.2,0.5-1.2,1.2v2.4h-1.2l-8.2-3.5
		c-0.1-0.1-0.3-0.1-0.5-0.1H50.4c-2.2,0-4.4,0.9-5.9,2.5l-9.8,9.7c-0.8,0.7-1.3,1.7-1.4,2.8c-0.1,1.1,0.1,2.1,0.7,3.1
		c0.2,0.3,0.4,0.5,0.6,0.8c-0.9,1.6-1.3,3.3-1.3,5.1c0,3.4,1.6,6.6,4.4,8.7c2.7,2,6.3,2.7,9.6,1.7c3.3-1,5.9-3.5,7-6.7
		c1.1-3.2,0.7-6.8-1.2-9.6h3c0.9,2.9,4.7,4.8,8.2,4.8c3.5,0,7.4-1.9,8.2-4.8h0.4V36c0,0.3,0.1,0.6,0.4,0.8c0.2,0.2,0.5,0.4,0.8,0.4
		h7.2c0.3,0,0.6-0.1,0.8-0.4c0.2-0.2,0.4-0.5,0.4-0.8V16.8C82.5,16.5,82.3,16.2,82.1,15.9z M52.5,39.6c0,3-1.6,5.8-4.2,7.3
		s-5.8,1.5-8.4,0c-2.6-1.5-4.2-4.3-4.2-7.3c0-1.7,0.5-3.4,1.5-4.8c1.5-2.2,4-3.6,6.7-3.6h0.2c0.1,0,0.3,0,0.4,0
		c0.4,0.7,1,1.3,1.7,1.7c0.7,0.4,1.5,0.6,2.4,0.6H50C51.6,35.1,52.5,37.3,52.5,39.6L52.5,39.6z M72.9,31.2h-1.4
		c-0.7,0-1.2,0.5-1.2,1.2c0,1.8-3,3.6-6,3.6c-3,0-6-1.8-6-3.6c0-0.3-0.1-0.6-0.4-0.8c-0.2-0.2-0.5-0.4-0.8-0.4h-8.4
		c-0.6,0-1.2-0.3-1.7-0.7c-0.4-0.4-0.7-1.1-0.7-1.7c0-0.6,0.3-1.2,0.7-1.7c0.5-0.4,1.1-0.7,1.7-0.7h13.2V24H48.7
		c-1.3,0-2.5,0.5-3.4,1.4c-0.9,0.9-1.4,2.1-1.4,3.4h0c-3,0.1-5.8,1.4-7.8,3.6c0,0,0,0,0,0v0c-0.3-0.5-0.4-1-0.3-1.5
		c0.1-0.5,0.3-1,0.7-1.4l9.8-9.7c1.1-1.1,2.6-1.8,4.2-1.8h12.4l8.2,3.5c0.1,0.1,0.3,0.1,0.5,0.1h1.4V31.2z M80.1,34.8h-4.8V18h4.8
		V34.8z"/>
	<path class="st0" d="M42.9,36h2.4c0.3,0,0.6,0.1,0.8,0.4c0.2,0.2,0.4,0.5,0.4,0.8h2.4c0-1-0.4-1.9-1.1-2.5s-1.6-1.1-2.5-1.1v-1.2
		h-2.4v1.2c-1.3,0-2.5,0.7-3.1,1.8c-0.6,1.1-0.6,2.5,0,3.6c0.6,1.1,1.8,1.8,3.1,1.8h2.4c0.7,0,1.2,0.5,1.2,1.2s-0.5,1.2-1.2,1.2
		h-2.4c-0.7,0-1.2-0.5-1.2-1.2h-2.4c0,1,0.4,1.9,1.1,2.5c0.7,0.7,1.6,1.1,2.5,1.1v1.2h2.4v-1.2c1.3,0,2.5-0.7,3.1-1.8
		c0.6-1.1,0.6-2.5,0-3.6c-0.6-1.1-1.8-1.8-3.1-1.8h-2.4c-0.7,0-1.2-0.5-1.2-1.2S42.2,36,42.9,36z"/>
	<path class="st0" d="M70.2,58.9L70.2,58.9c-1.2-0.5-2.5-0.6-3.7-0.2L59,61.5c-0.7-1.3-2-2.3-3.4-2.5L39.3,56c-0.2,0-0.4,0-0.6,0.1
		l-7.8,2.8l-0.4-1.1l0,0c-0.1-0.3-0.3-0.5-0.6-0.7c-0.3-0.1-0.6-0.1-0.9,0l-9,3.3c-0.3,0.1-0.5,0.3-0.7,0.6c-0.1,0.3-0.1,0.6,0,0.9
		l-7.9,2.9c-0.3,0.1-0.5,0.3-0.7,0.6c-0.1,0.3-0.1,0.6,0,0.9l5.7,15.8c0.2,0.5,0.6,0.8,1.1,0.8c0.1,0,0.3,0,0.4-0.1l7.9-2.9
		c0.1,0.3,0.3,0.5,0.6,0.7c0.3,0.1,0.6,0.1,0.9,0l9-3.3c0.3-0.1,0.5-0.3,0.7-0.6s0.1-0.6,0-0.9l-0.4-1.1l0.7-0.3l6.9,2.3
		c0.3,0.1,0.5,0.1,0.8,0l3.4-1.2l21.4-7.8h0c1.2-0.4,2.2-1.3,2.7-2.5s0.6-2.5,0.2-3.7C72.2,60.4,71.3,59.4,70.2,58.9z M18.2,80.2
		l-4.9-13.5l6.8-2.5l4.9,13.5L18.2,80.2z M27.6,78l-5.7-15.8l6.8-2.5l5.7,15.8L27.6,78z M70.5,63.7c-0.1,0.8-0.7,1.5-1.5,1.8l0,0
		l-24.4,8.9L37.7,72c-0.3-0.1-0.5-0.1-0.8,0l-1.1,0.4l-4.1-11.3l7.5-2.7l16,2.8c0.4,0.1,0.8,0.3,1.1,0.5c0.3,0.3,0.6,0.6,0.7,1
		c0,0.1,0.1,0.3,0.1,0.4c0.1,0.3,0.1,0.5,0,0.8c-0.1,0.6-0.5,1.2-1,1.5C55.6,66,55,66.1,54.4,66l-13.5-2.4L40.5,66L54,68.4
		c1.3,0.2,2.5-0.1,3.6-0.8c1-0.7,1.8-1.8,2-3.1c0-0.2,0-0.4,0.1-0.6l7.8-2.8h0c0.8-0.3,1.7-0.1,2.4,0.4C70.4,62,70.7,62.8,70.5,63.7
		z"/>
</g>
</svg>
