<?xml version="1.0" encoding="utf-8"?>
<!-- Generator: Adobe Illustrator 26.1.0, SVG Export Plug-In . SVG Version: 6.00 Build 0)  -->
<svg version="1.1" id="Layer_1" xmlns="http://www.w3.org/2000/svg" xmlns:xlink="http://www.w3.org/1999/xlink" x="0px" y="0px"
	 viewBox="0 0 96.8 96.8" style="enable-background:new 0 0 96.8 96.8;" xml:space="preserve">
<style type="text/css">
	.st0{fill:#0097DF;}
	.st1{fill-rule:evenodd;clip-rule:evenodd;fill:#0097DF;}
</style>
<g>
	<g>
		<path class="st1" d="M45.6,76v-4.6l-1-0.1c-3.7-0.4-7-1.6-9.7-3.4l-0.6-0.4l-10.6,7.5l-2.3-3.2l51.4-36.4l2.3,3.2L58.4,50.3
			l1.1,0.9c2.5,2,3.7,4.6,3.7,8.1c0,6.7-4.8,11.2-12.7,12l-1,0.1V76H45.6z M37.1,65.4l1.5,0.8c2.9,1.6,6,2.3,9.3,2.3
			c8.6,0,11.7-4.7,11.7-8.8c0-2.8-1.4-5-4.2-6.6l-0.6-0.3L37.1,65.4z M42.7,48.9C36.8,47,33,44.5,33,38.6c0-5.9,4.6-10.3,11.7-11.2
			l0.9-0.1l0-4.7h3.9v4.7l1,0.1c4.6,0.5,8.4,2.2,11.4,5.1l-2,2.4C56.6,31.7,52,30,46.9,30c-6.1,0-10.3,3.4-10.3,8.2
			c0,4.8,4.7,6.5,10.1,8L42.7,48.9z"/>
	</g>
</g>
</svg>
